<?xml version="1.0" encoding="UTF-8"?>
<svg width="483px" height="483px" viewBox="0 0 483 483" version="1.1" xmlns="http://www.w3.org/2000/svg" xmlns:xlink="http://www.w3.org/1999/xlink">
    <title>Apollo</title>
    <defs>
        <polygon id="path-1" points="0 0.12578125 482.923525 0.12578125 482.923525 483 0 483"></polygon>
    </defs>
    <g id="Page-1" stroke="none" stroke-width="1" fill="none" fill-rule="evenodd">
        <g id="Apollo">
            <g id="Clipped">
                <mask id="mask-2" fill="white">
                    <use xlink:href="#path-1"></use>
                </mask>
                <g id="Path"></g>
                <path d="M229.479338,0.337387977 C228.55077,0.379526105 225.046605,0.6750891 221.669227,0.928515175 C179.452612,4.05232975 136.645128,19.6725095 101.563227,44.749145 C89.9535175,53.02374 80.7926175,60.7915875 70.57596,71.0078425 C11.8529005,129.773245 -12.337269,213.868778 6.026874,295.557762 C13.541388,329.077963 29.58375,362.809073 50.8611075,389.912215 C84.2541175,432.5104 130.01716,462.524825 181.352412,475.525575 C202.24981,480.846625 219.60078,483 241.51127,483 C263.125923,483 279.04198,481.055925 299.64354,476.032725 C329.237353,468.771625 355.242878,456.825425 381.248,438.6284 C406.1547,421.15185 429.334675,396.666568 445.965975,370.281485 C467.411175,336.170415 479.61095,298.51332 482.609575,257.18301 C483.2415,248.486595 482.86315,226.956065 481.933375,218.0906 C480.07785,200.486055 475.348475,177.267038 472.603425,172.412082 C471.508625,170.512283 468.425475,168.063875 466.147325,167.261693 C465.342325,167.00852 463.571325,166.79761 462.1344,166.79761 C455.803075,166.79761 450.482025,172.074385 450.482025,178.280533 C450.482025,179.757708 451.158225,183.304135 452.12825,187.145595 C460.488175,219.652703 461.164375,255.367735 454.02805,287.958965 C444.911425,329.711497 424.561025,366.524147 393.870802,396.70883 C379.559513,410.76735 365.754568,421.15185 347.897253,431.3673 C306.229245,455.21945 254.429507,464.255575 205.838097,456.149225 C168.940923,450.0272 136.8983,435.8431 106.460445,412.16 C92.1487525,401.014775 74.71366,382.650712 63.9061325,367.284067 C45.2462325,340.771795 33.5099765,312.82461 27.4307372,280.360168 C24.3490765,263.810977 23.293641,241.858225 24.7289158,224.00091 C26.9242715,196.897768 33.7210475,171.736688 45.2462325,147.884135 C50.56527,136.781173 53.858525,130.99765 60.23332,121.414527 C73.23568,101.741535 90.460265,83.33521 109.499722,68.7280825 C131.832435,51.5461625 158.344305,38.5011375 185.152012,31.4932905 C199.632352,27.6936905 211.1998,25.7938905 225.89105,24.738616 C279.04198,20.939016 330.71493,36.2214982 372.804757,68.264 C375.928963,70.6278825 379.221412,73.2030775 380.10812,74.00526 L381.712485,75.3983125 L381.079353,77.1717275 C377.828762,86.290365 380.234908,97.6465 387.074187,105.583397 C390.57795,109.63617 396.910483,113.435367 402.272185,114.702035 C405.9454,115.58834 412.321,115.58834 416.036075,114.702035 C425.45055,112.464537 434.229075,104.401255 437.014375,95.451265 C440.1418,85.44592 438.326525,75.5673625 431.90665,67.54594 C424.8146,58.680475 412.614825,54.7122275 401.343215,57.6673825 L398.894405,58.3009175 L395.432905,55.429885 C381.374787,43.6515275 364.361515,32.7595958 346.461535,24.1053628 C317.416733,10.0470843 288.24474,2.49041643 255.02078,0.464002 C248.645985,0.0839619025 233.574775,-0.000314640288 229.479338,0.337387977 Z" id="Path" fill="#000000" mask="url(#mask-2)"></path>
            </g>
            <path d="M208.587743,142.122338 C204.041281,153.76741 194.177022,179.267549 186.585792,198.774982 C178.994563,218.282416 163.426034,258.359688 151.97451,287.812506 C140.566373,317.26452 131.087782,341.489692 131,341.659661 C130.873254,341.872222 142.924974,342 157.721765,342 L184.69843,342 L186.285292,337.622601 C187.185988,335.242234 190.359713,326.827373 193.319312,318.922418 L198.723082,304.599635 L239.209773,304.599635 C271.462455,304.599635 279.696866,304.472259 279.56831,304.047538 C279.139255,302.899947 272.534692,284.199765 269.017482,274.212191 L265.243159,263.587333 L238.438036,263.374772 L211.675497,263.162211 L229.088402,215.604704 C239.553259,187.044725 246.629863,168.344945 246.758419,168.770068 C246.92996,169.152598 253.878008,188.744815 262.241377,212.290112 C270.604344,235.835008 284.41487,274.594721 292.906393,298.437363 L308.30338,341.787439 L335.151489,341.914815 C349.905294,341.957407 362,341.914815 362,341.829629 C362,341.744846 358.526177,332.692301 354.237229,321.769697 C349.94828,310.804902 340.770188,287.217414 333.82214,269.324885 C326.874494,251.432356 319.068737,231.372423 316.452221,224.699842 C313.879093,218.027262 309.375617,206.467376 306.459405,198.987544 C303.542792,191.50731 295.951563,171.915093 289.51814,155.424907 C283.085119,138.935122 277.46642,124.44237 276.995183,123.209996 L276.179656,121 L216.779168,121 L208.587743,142.122338 Z" id="Path" fill="#000000"></path>
        </g>
    </g>
</svg>